<svg display="none" xmlns="http://www.w3.org/2000/svg">
  <symbol style="width:24px;height:24px" viewBox="0 0 24 24" id="logo">
      <g>
        <path fill="currentColor" d="M2,2H16V16H2V2M22,8V22H8V18H10V20H20V10H18V8H22Z" />
      </g>
  </symbol>
  <symbol style="width:24px;height:24px" viewBox="0 0 24 24" id="home">
      <g>
        <path fill="currentColor" d="M10,20V14H14V20H19V12H22L12,3L2,12H5V20H10Z" />
      </g>
  </symbol>
  <symbol style="width:24px;height:24px" viewBox="0 0 24 24" id="profile">
      <g>
        <path fill="currentColor" d="M8,9A2,2 0 0,1 10,11A2,2 0 0,1 8,13A2,2 0 0,1 6,11A2,2 0 0,1 8,9M12,17H4V16C4,14.67 6.67,14 8,14C9.33,14 12,14.67 12,16V17M20,8H14V10H20V8M20,12H14V14H20V12M20,16H14V18H20V16M22,4H14V6H22V20H2V6H10V4H2A2,2 0 0,0 0,6V20A2,2 0 0,0 2,22H22A2,2 0 0,0 24,20V6A2,2 0 0,0 22,4M13,6H11V2H13V6Z" />
      </g>
  </symbol>
  <symbol style="width:24px;height:24px" viewBox="0 0 24 24" id="tasks">
      <g>
        <path fill="currentColor" d="M16,15H9V13H16V15M19,11H9V9H19V11M19,7H9V5H19V7M3,5V21H19V23H3A2,2 0 0,1 1,21V5H3M21,1A2,2 0 0,1 23,3V17C23,18.11 22.11,19 21,19H7A2,2 0 0,1 5,17V3C5,1.89 5.89,1 7,1H21M7,3V17H21V3H7Z" />
      </g>
  </symbol>
  <symbol style="width:24px;height:24px" viewBox="0 0 24 24" id="settings">
      <g>
         <path fill="currentColor" d="M12,15.5A3.5,3.5 0 0,1 8.5,12A3.5,3.5 0 0,1 12,8.5A3.5,3.5 0 0,1 15.5,12A3.5,3.5 0 0,1 12,15.5M19.43,12.97C19.47,12.65 19.5,12.33 19.5,12C19.5,11.67 19.47,11.34 19.43,11L21.54,9.37C21.73,9.22 21.78,8.95 21.66,8.73L19.66,5.27C19.54,5.05 19.27,4.96 19.05,5.05L16.56,6.05C16.04,5.66 15.5,5.32 14.87,5.07L14.5,2.42C14.46,2.18 14.25,2 14,2H10C9.75,2 9.54,2.18 9.5,2.42L9.13,5.07C8.5,5.32 7.96,5.66 7.44,6.05L4.95,5.05C4.73,4.96 4.46,5.05 4.34,5.27L2.34,8.73C2.21,8.95 2.27,9.22 2.46,9.37L4.57,11C4.53,11.34 4.5,11.67 4.5,12C4.5,12.33 4.53,12.65 4.57,12.97L2.46,14.63C2.27,14.78 2.21,15.05 2.34,15.27L4.34,18.73C4.46,18.95 4.73,19.03 4.95,18.95L7.44,17.94C7.96,18.34 8.5,18.68 9.13,18.93L9.5,21.58C9.54,21.82 9.75,22 10,22H14C14.25,22 14.46,21.82 14.5,21.58L14.87,18.93C15.5,18.67 16.04,18.34 16.56,17.94L19.05,18.95C19.27,19.03 19.54,18.95 19.66,18.73L21.66,15.27C21.78,15.05 21.73,14.78 21.54,14.63L19.43,12.97Z" />
      </g>
  </symbol>
  <symbol style="width:24px;height:24px" viewBox="0 0 24 24" id="messages">
      <g>
         <path fill="currentColor" d="M9,22A1,1 0 0,1 8,21V18H4A2,2 0 0,1 2,16V4C2,2.89 2.9,2 4,2H20A2,2 0 0,1 22,4V16A2,2 0 0,1 20,18H13.9L10.2,21.71C10,21.9 9.75,22 9.5,22V22H9Z" />
      </g>
  </symbol>
  <symbol style="width:24px;height:24px" viewBox="0 0 24 24" id="history">
      <g>
         <path fill="currentColor" d="M13.5,8H12V13L16.28,15.54L17,14.33L13.5,12.25V8M13,3A9,9 0 0,0 4,12H1L4.96,16.03L9,12H6A7,7 0 0,1 13,5A7,7 0 0,1 20,12A7,7 0 0,1 13,19C11.07,19 9.32,18.21 8.06,16.94L6.64,18.36C8.27,20 10.5,21 13,21A9,9 0 0,0 22,12A9,9 0 0,0 13,3" />
      </g>
  </symbol>
  <symbol style="width:24px;height:24px" viewBox="0 0 24 24" id="support">
      <g>
          <path fill="currentColor" d="M18.72,14.76C19.07,13.91 19.26,13 19.26,12C19.26,11.28 19.15,10.59 18.96,9.95C18.31,10.1 17.63,10.18 16.92,10.18C13.86,10.18 11.15,8.67 9.5,6.34C8.61,8.5 6.91,10.26 4.77,11.22C4.73,11.47 4.73,11.74 4.73,12A7.27,7.27 0 0,0 12,19.27C13.05,19.27 14.06,19.04 14.97,18.63C15.54,19.72 15.8,20.26 15.78,20.26C14.14,20.81 12.87,21.08 12,21.08C9.58,21.08 7.27,20.13 5.57,18.42C4.53,17.38 3.76,16.11 3.33,14.73H2V10.18H3.09C3.93,6.04 7.6,2.92 12,2.92C14.4,2.92 16.71,3.87 18.42,5.58C19.69,6.84 20.54,8.45 20.89,10.18H22V14.67H22V14.69L22,14.73H21.94L18.38,18L13.08,17.4V15.73H17.91L18.72,14.76M9.27,11.77C9.57,11.77 9.86,11.89 10.07,12.11C10.28,12.32 10.4,12.61 10.4,12.91C10.4,13.21 10.28,13.5 10.07,13.71C9.86,13.92 9.57,14.04 9.27,14.04C8.64,14.04 8.13,13.54 8.13,12.91C8.13,12.28 8.64,11.77 9.27,11.77M14.72,11.77C15.35,11.77 15.85,12.28 15.85,12.91C15.85,13.54 15.35,14.04 14.72,14.04C14.09,14.04 13.58,13.54 13.58,12.91A1.14,1.14 0 0,1 14.72,11.77Z" />
      </g>
  </symbol>
  <symbol style="width:24px;height:24px" viewBox="0 0 24 24" id="communities">
      <g>
         <path fill="currentColor" d="M12,5.5A3.5,3.5 0 0,1 15.5,9A3.5,3.5 0 0,1 12,12.5A3.5,3.5 0 0,1 8.5,9A3.5,3.5 0 0,1 12,5.5M5,8C5.56,8 6.08,8.15 6.53,8.42C6.38,9.85 6.8,11.27 7.66,12.38C7.16,13.34 6.16,14 5,14A3,3 0 0,1 2,11A3,3 0 0,1 5,8M19,8A3,3 0 0,1 22,11A3,3 0 0,1 19,14C17.84,14 16.84,13.34 16.34,12.38C17.2,11.27 17.62,9.85 17.47,8.42C17.92,8.15 18.44,8 19,8M5.5,18.25C5.5,16.18 8.41,14.5 12,14.5C15.59,14.5 18.5,16.18 18.5,18.25V20H5.5V18.25M0,20V18.5C0,17.11 1.89,15.94 4.45,15.6C3.86,16.28 3.5,17.22 3.5,18.25V20H0M24,20H20.5V18.25C20.5,17.22 20.14,16.28 19.55,15.6C22.11,15.94 24,17.11 24,18.5V20Z" />
      </g>
  </symbol>
  <symbol style="width:24px;height:24px" viewBox="0 0 24 24" id="privacy">
      <g>
         <path fill="currentColor" d="M10,17L6,13L7.41,11.59L10,14.17L16.59,7.58L18,9M12,1L3,5V11C3,16.55 6.84,21.74 12,23C17.16,21.74 21,16.55 21,11V5L12,1Z" />
      </g>
  </symbol>
  <symbol style="width:24px;height:24px" viewBox="0 0 24 24" id="search">
      <g>
         <path fill="currentColor" d="M9.5,3A6.5,6.5 0 0,1 16,9.5C16,11.11 15.41,12.59 14.44,13.73L14.71,14H15.5L20.5,19L19,20.5L14,15.5V14.71L13.73,14.44C12.59,15.41 11.11,16 9.5,16A6.5,6.5 0 0,1 3,9.5A6.5,6.5 0 0,1 9.5,3M9.5,5C7,5 5,7 5,9.5C5,12 7,14 9.5,14C12,14 14,12 14,9.5C14,7 12,5 9.5,5Z" />
      </g>
  </symbol>
  <symbol style="width:24px;height:24px" viewBox="0 0 24 24" id="add-later">
      <g>
         <path fill="currentColor" d="M11 8H13V14H11V8M15 1H9V3H15V1M12 20C8.13 20 5 16.87 5 13S8.13 6 12 6 19 9.13 19 13C19.7 13 20.36 13.13 21 13.35C21 13.23 21 13.12 21 13C21 10.88 20.26 8.93 19.03 7.39L20.45 5.97C20 5.46 19.55 5 19.04 4.56L17.62 6C16.07 4.74 14.12 4 12 4C7.03 4 3 8.03 3 13S7.03 22 12 22C12.59 22 13.16 21.94 13.71 21.83C13.4 21.25 13.18 20.6 13.08 19.91C12.72 19.96 12.37 20 12 20M20 18V15H18V18H15V20H18V23H20V20H23V18H20Z" />
      </g>
  </symbol>
  <symbol style="width:24px;height:24px" viewBox="0 0 24 24" id="add-favourite">
      <g>
         <path fill="currentColor" d="M5.8 21L7.4 14L2 9.2L9.2 8.6L12 2L14.8 8.6L22 9.2L18.8 12H18C17.3 12 16.6 12.1 15.9 12.4L18.1 10.5L13.7 10.1L12 6.1L10.3 10.1L5.9 10.5L9.2 13.4L8.2 17.7L12 15.4L12.5 15.7C12.3 16.2 12.1 16.8 12.1 17.3L5.8 21M17 14V17H14V19H17V22H19V19H22V17H19V14H17Z" />
      </g>
  </symbol>
  <symbol style="width:24px;height:24px" viewBox="0 0 24 24" id="notification">
      <g>
         <path fill="currentColor" d="M21,19V20H3V19L5,17V11C5,7.9 7.03,5.17 10,4.29C10,4.19 10,4.1 10,4A2,2 0 0,1 12,2A2,2 0 0,1 14,4C14,4.1 14,4.19 14,4.29C16.97,5.17 19,7.9 19,11V17L21,19M14,21A2,2 0 0,1 12,23A2,2 0 0,1 10,21M19.75,3.19L18.33,4.61C20.04,6.3 21,8.6 21,11H23C23,8.07 21.84,5.25 19.75,3.19M1,11H3C3,8.6 3.96,6.3 5.67,4.61L4.25,3.19C2.16,5.25 1,8.07 1,11Z" />
      </g>
  </symbol>
  <symbol style="width:24px;height:24px" viewBox="0 0 24 24" id="share">
      <g>
         <path fill="currentColor" d="M18,16.08C17.24,16.08 16.56,16.38 16.04,16.85L8.91,12.7C8.96,12.47 9,12.24 9,12C9,11.76 8.96,11.53 8.91,11.3L15.96,7.19C16.5,7.69 17.21,8 18,8A3,3 0 0,0 21,5A3,3 0 0,0 18,2A3,3 0 0,0 15,5C15,5.24 15.04,5.47 15.09,5.7L8.04,9.81C7.5,9.31 6.79,9 6,9A3,3 0 0,0 3,12A3,3 0 0,0 6,15C6.79,15 7.5,14.69 8.04,14.19L15.16,18.34C15.11,18.55 15.08,18.77 15.08,19C15.08,20.61 16.39,21.91 18,21.91C19.61,21.91 20.92,20.61 20.92,19A2.92,2.92 0 0,0 18,16.08Z" />
      </g>
  </symbol>
</svg>
